<svg viewBox="0 0 560 218" xmlns="http://www.w3.org/2000/svg" fill-rule="evenodd" clip-rule="evenodd" stroke-linejoin="round" stroke-miterlimit="1.414"><path fill="none" d="M0 0h559.871v217.838H.001z"/><path d="M116.384 14.383c-60.257 0-109.12 40.72-109.12 90.94 0 28.69 16.1 54.081 40.883 70.931 9.43 6.436-13.456 28.06-13.456 28.06s45.776-12.918 52.607-11.35c9.243 2.13 19.026 3.275 29.089 3.275 60.259 0 109.1-40.72 109.1-90.916-.004-50.22-48.843-90.94-109.103-90.94zm-55.3 112.024c-9.428 0-17.083-7.63-17.083-17.059 0-6.875 4.087-12.812 9.968-15.51a17.019 17.019 0 0 1 7.116-1.55c9.431 0 17.061 7.653 17.061 17.06 0 9.43-7.63 17.06-17.061 17.06zm55.3 0c-9.429 0-17.059-7.63-17.059-17.059 0-9.407 7.63-17.06 17.06-17.06s17.06 7.653 17.06 17.06c0 9.43-7.63 17.06-17.06 17.06zm55.298 0c-9.432 0-17.06-7.63-17.06-17.059 0-9.407 7.628-17.06 17.06-17.06 9.407 0 17.061 7.653 17.061 17.06 0 9.43-7.652 17.06-17.061 17.06z" fill="#95aaf6" fill-rule="nonzero"/><path d="M212.629 47.026c40.793 0 73.873 27.566 73.873 61.565 0 19.423-10.9 36.612-27.678 48.02-6.383 4.356 9.11 18.995 9.11 18.995s-30.99-8.745-35.614-7.683a87.852 87.852 0 0 1-19.693 2.217c-40.794 0-73.86-27.567-73.86-61.55.003-33.998 33.067-61.564 73.862-61.564zm37.437 75.839c6.383 0 11.565-5.166 11.565-11.55 0-6.368-5.18-11.548-11.565-11.548s-11.55 5.18-11.55 11.549a11.543 11.543 0 0 0 11.55 11.549zm-37.437 0a11.542 11.542 0 0 0 11.549-11.55c0-6.368-5.166-11.548-11.55-11.548s-11.55 5.18-11.55 11.549c0 6.383 5.166 11.549 11.55 11.549zm-37.436 0a11.541 11.541 0 0 0 11.55-11.55c0-6.368-5.165-11.548-11.55-11.548-6.368 0-11.55 5.18-11.55 11.549 0 6.383 5.18 11.549 11.55 11.549z" fill="#4fd9a2" fill-rule="nonzero"/><circle cx="178.175" cy="110.68" r="5.113" fill="#fff" transform="matrix(2.34991 0 0 2.28723 -205.957 -141.829)"/><circle cx="178.175" cy="110.68" r="5.113" fill="#fff" transform="matrix(2.34991 0 0 2.28723 -168.279 -141.829)"/><circle cx="178.175" cy="110.68" r="5.113" fill="#fff" transform="matrix(2.34991 0 0 2.28723 -243.01 -141.829)"/><circle cx="178.175" cy="110.68" r="5.113" fill="#fff" transform="matrix(3.41865 0 0 3.32748 -492.64 -258.965)"/><circle cx="178.175" cy="110.68" r="5.113" fill="#fff" transform="matrix(3.41865 0 0 3.32748 -547.75 -258.965)"/><path d="M307.47 85.597h10.037l8.418 33.225 8.64-33.225h9.014l-15.709 51.435c-1.144 3.735-2.198 6.498-3.155 8.288-.964 1.79-2.32 3.228-4.07 4.331-1.757 1.104-4.03 1.651-6.8 1.651-1.667 0-3.376-.22-5.125-.67v-7.944c1.275.22 2.436.335 3.49.335 2.591 0 4.422-.63 5.51-1.896 1.086-1.259 2.255-4.185 3.497-8.787L307.47 85.597zm49.66 13.699l-9.62-1.194c.638-4.315 2.624-7.666 5.95-10.06 3.336-2.396 7.422-3.589 12.27-3.589 4.34 0 7.805.866 10.404 2.607s4.233 3.809 4.895 6.204c.67 2.395 1.006 6.015 1.006 10.87v16.478c0 6.67.286 11.124.866 13.355h-9.44c-.409-1.757-.621-4.438-.621-8.043-3.024 6.163-7.552 9.244-13.576 9.244-4.079 0-7.356-1.258-9.824-3.76-2.469-2.509-3.703-5.917-3.703-10.224 0-5.272 1.806-9.432 5.427-12.497 3.613-3.065 9.882-4.602 18.807-4.602.45 0 1.152.017 2.109.05v-1.962c0-3.45-.523-6.057-1.553-7.806-1.038-1.757-2.894-2.64-5.566-2.64-4.357 0-6.964 2.526-7.83 7.569zm14.95 11.107c-1.275-.122-2.248-.188-2.918-.188-8.656 0-12.988 3.4-12.988 10.2 0 4.954 2.15 7.422 6.45 7.422 2.517 0 4.715-1.34 6.611-4.021 1.897-2.681 2.845-6.367 2.845-11.059v-2.354zm21.16-24.806h9.195v7.953c2.518-5.844 6.506-8.762 11.958-8.762 4.871 0 8.81 2.125 11.81 6.392 2.992 4.258 4.487 10.339 4.487 18.218 0 7.062-1.356 13.06-4.078 18.014-2.722 4.945-6.94 7.421-12.669 7.421-4.585 0-8.165-1.961-10.74-5.893v21.406h-9.963V85.597zm9.964 28.133c0 3.09.229 5.509.694 7.25.458 1.732 1.406 3.22 2.828 4.446 1.43 1.226 3.049 1.839 4.863 1.839 5.648 0 8.476-5.959 8.476-17.883 0-11.55-2.762-17.32-8.288-17.32-2.443 0-4.487 1.185-6.121 3.54-1.635 2.361-2.452 5.729-2.452 10.093v8.035zm37.164 7.887h10.92v12.358h-10.92zm33.33-42.534h-10.486V68.507h10.486v10.576zm-10.249 6.514h9.963v48.37h-9.963v-48.37zm21.741 0h9.195v7.38c2.362-5.688 6.334-8.524 11.917-8.524 6.122 0 9.808 3 11.05 8.999 2.264-6 6.35-8.999 12.252-8.999 2.934 0 5.378.638 7.34 1.913 1.961 1.275 3.326 2.966 4.094 5.075.76 2.109 1.145 6.081 1.145 11.925v30.6h-9.964v-29.75c0-4.56-.392-7.65-1.177-9.277-.784-1.626-2.362-2.443-4.732-2.443-5.06 0-7.593 4.389-7.593 13.159v28.312h-9.963V104.55c0-4.176-.164-6.882-.499-8.108-.335-1.226-.956-2.19-1.872-2.893-.907-.703-2.084-1.054-3.514-1.054-2.779 0-4.765 1.046-5.942 3.13-1.185 2.092-1.774 5.509-1.774 10.266v28.075h-9.963v-48.37z" fill="#fff" fill-rule="nonzero"/></svg>